<svg width="19" height="20" viewBox="0 0 19 20" fill="none" xmlns="http://www.w3.org/2000/svg">
<path d="M13 2.8H14.75C15.2141 2.8 15.6592 2.98964 15.9874 3.32721C16.3156 3.66477 16.5 4.12261 16.5 4.6V17.2C16.5 17.6774 16.3156 18.1352 15.9874 18.4728C15.6592 18.8104 15.2141 19 14.75 19H4.25C3.78587 19 3.34075 18.8104 3.01256 18.4728C2.68437 18.1352 2.5 17.6774 2.5 17.2V4.6C2.5 4.12261 2.68437 3.66477 3.01256 3.32721C3.34075 2.98964 3.78587 2.8 4.25 2.8H6M9.5 9.1H13M9.5 13.6H13M6 9.1H6.00875M6 13.6H6.00875M6.875 1H12.125C12.6082 1 13 1.40294 13 1.9V3.7C13 4.19706 12.6082 4.6 12.125 4.6H6.875C6.39175 4.6 6 4.19706 6 3.7V1.9C6 1.40294 6.39175 1 6.875 1Z" stroke="#737373" stroke-width="1.5" stroke-linecap="round" stroke-linejoin="round"/>
</svg>
