<svg width="19" height="18" viewBox="0 0 19 18" fill="none" xmlns="http://www.w3.org/2000/svg">
<g clip-path="url(#clip0_443_2963)">
<path d="M7.76191 1.47021C8.63968 0.878327 9.7532 0.84081 10.6604 1.35889L10.8381 1.47021L14.7404 4.10303L16.1379 5.04639L16.2004 5.09326C16.8912 5.61154 17.2998 6.42303 17.3 7.29248V14.2495C17.3 15.765 16.0655 16.9995 14.55 16.9995H13.3V10.4995C13.2998 9.53483 12.5168 8.74951 11.55 8.74951H7.05C6.08321 8.74951 5.30024 9.53483 5.3 10.4995V16.9995H4.05C2.53453 16.9995 1.3 15.765 1.3 14.2495V7.29248L1.30488 7.12158C1.35751 6.27136 1.80044 5.49352 2.51191 5.01318L7.76191 1.47021Z" stroke="#181818" stroke-width="2"/>
</g>
<defs>
<clipPath id="clip0_443_2963">
<rect width="18" height="18" fill="white" transform="translate(0.299999)"/>
</clipPath>
</defs>
</svg>
