<svg width="18" height="18" viewBox="0 0 18 18" fill="none" xmlns="http://www.w3.org/2000/svg">
<path d="M7.32129 1.2627C8.34206 0.574237 9.65796 0.575162 10.6787 1.26367L14.5801 3.89648L15.75 4.68555V4.66797L16.0498 4.89355C16.8035 5.45886 17.2499 6.34436 17.25 7.29297V14.25C17.25 15.9035 15.9035 17.25 14.25 17.25H12.75V10.5C12.7498 9.67323 12.0786 9 11.25 9H6.75C5.92145 9 5.25024 9.67323 5.25 10.5V17.25H3.75C2.09646 17.25 0.75 15.9035 0.75 14.25V7.29297C0.750157 6.29377 1.24457 5.36544 2.07227 4.80664L7.32227 1.26367L7.32129 1.2627Z" stroke="#737373" stroke-width="1.5"/>
</svg>
