<svg width="16" height="16" viewBox="0 0 16 16" fill="none" xmlns="http://www.w3.org/2000/svg">
<g clip-path="url(#clip0_1136_3673)">
<mask id="path-1-inside-1_1136_3673" fill="white">
<path d="M8 0C6.03034 0.00140425 4.13075 0.731081 2.66667 2.04867V0.666667C2.66667 0.489856 2.59643 0.320286 2.4714 0.195262C2.34638 0.0702379 2.17681 0 2 0C1.82319 0 1.65362 0.0702379 1.5286 0.195262C1.40357 0.320286 1.33333 0.489856 1.33333 0.666667V2.66667C1.33333 3.1971 1.54405 3.70581 1.91912 4.08088C2.29419 4.45595 2.8029 4.66667 3.33333 4.66667H5.33333C5.51015 4.66667 5.67971 4.59643 5.80474 4.47141C5.92976 4.34638 6 4.17681 6 4C6 3.82319 5.92976 3.65362 5.80474 3.5286C5.67971 3.40357 5.51015 3.33333 5.33333 3.33333H3.33333C3.31085 3.33 3.28859 3.32533 3.26667 3.31933C4.35301 2.22522 5.78542 1.54205 7.31938 1.38644C8.85333 1.23084 10.3938 1.61244 11.6777 2.46611C12.9616 3.31978 13.9095 4.5926 14.3595 6.0673C14.8094 7.54201 14.7337 9.12717 14.1451 10.5522C13.5564 11.9773 12.4915 13.1539 11.132 13.8812C9.77246 14.6085 8.20266 14.8414 6.69054 14.5401C5.17843 14.2389 3.81772 13.4222 2.8407 12.2295C1.86368 11.0367 1.33091 9.54183 1.33333 8C1.33333 7.82319 1.2631 7.65362 1.13807 7.5286C1.01305 7.40357 0.843478 7.33333 0.666667 7.33333C0.489856 7.33333 0.320286 7.40357 0.195262 7.5286C0.0702379 7.65362 0 7.82319 0 8C0 9.58225 0.469192 11.129 1.34824 12.4446C2.22729 13.7602 3.47672 14.7855 4.93853 15.391C6.40034 15.9965 8.00887 16.155 9.56072 15.8463C11.1126 15.5376 12.538 14.7757 13.6569 13.6569C14.7757 12.538 15.5376 11.1126 15.8463 9.56072C16.155 8.00887 15.9965 6.40034 15.391 4.93853C14.7855 3.47672 13.7602 2.22729 12.4446 1.34824C11.129 0.469192 9.58225 0 8 0Z"/>
</mask>
<path d="M8 0V-1.5L7.99893 -1.5L8 0ZM2.66667 2.04867H1.16667V5.41655L3.67008 3.16364L2.66667 2.04867ZM2.66667 0.666667H4.16667H2.66667ZM2 0V-1.5V0ZM1.33333 0.666667H-0.166667H1.33333ZM1.33333 2.66667H-0.166667H1.33333ZM3.33333 4.66667V6.16667V4.66667ZM3.33333 3.33333L3.11343 4.81713L3.22279 4.83333H3.33333V3.33333ZM3.26667 3.31933L2.20224 2.26246L0.389751 4.0879L2.87112 4.76624L3.26667 3.31933ZM1.33333 8L2.83333 8.00235V8H1.33333ZM0 8H-1.5H0ZM8 0L7.99893 -1.5C5.65909 -1.49833 3.4025 -0.63152 1.66326 0.933691L2.66667 2.04867L3.67008 3.16364C4.859 2.09368 6.40158 1.50114 8.00107 1.5L8 0ZM2.66667 2.04867H4.16667V0.666667H2.66667H1.16667V2.04867H2.66667ZM2.66667 0.666667H4.16667C4.16667 0.0920311 3.93839 -0.459069 3.53206 -0.865398L2.4714 0.195262L1.41074 1.25592C1.25446 1.09964 1.16667 0.88768 1.16667 0.666667H2.66667ZM2.4714 0.195262L3.53206 -0.865398C3.12574 -1.27173 2.57464 -1.5 2 -1.5V0V1.5C1.77899 1.5 1.56702 1.4122 1.41074 1.25592L2.4714 0.195262ZM2 0V-1.5C1.42536 -1.5 0.874264 -1.27173 0.467935 -0.865398L1.5286 0.195262L2.58926 1.25592C2.43298 1.4122 2.22101 1.5 2 1.5V0ZM1.5286 0.195262L0.467935 -0.865398C0.0616065 -0.459069 -0.166667 0.0920311 -0.166667 0.666667H1.33333H2.83333C2.83333 0.88768 2.74554 1.09964 2.58926 1.25592L1.5286 0.195262ZM1.33333 0.666667H-0.166667V2.66667H1.33333H2.83333V0.666667H1.33333ZM1.33333 2.66667H-0.166667C-0.166667 3.59492 0.202083 4.48516 0.85846 5.14154L1.91912 4.08088L2.97978 3.02022C2.88601 2.92645 2.83333 2.79928 2.83333 2.66667H1.33333ZM1.91912 4.08088L0.85846 5.14154C1.51484 5.79792 2.40508 6.16667 3.33333 6.16667V4.66667V3.16667C3.20073 3.16667 3.07355 3.11399 2.97978 3.02022L1.91912 4.08088ZM3.33333 4.66667V6.16667H5.33333V4.66667V3.16667H3.33333V4.66667ZM5.33333 4.66667V6.16667C5.90797 6.16667 6.45907 5.93839 6.8654 5.53206L5.80474 4.47141L4.74408 3.41074C4.90036 3.25447 5.11232 3.16667 5.33333 3.16667V4.66667ZM5.80474 4.47141L6.8654 5.53206C7.27173 5.12574 7.5 4.57464 7.5 4H6H4.5C4.5 3.77899 4.5878 3.56702 4.74408 3.41074L5.80474 4.47141ZM6 4H7.5C7.5 3.42536 7.27173 2.87426 6.8654 2.46794L5.80474 3.5286L4.74408 4.58926C4.5878 4.43298 4.5 4.22102 4.5 4H6ZM5.80474 3.5286L6.8654 2.46794C6.45907 2.06161 5.90797 1.83333 5.33333 1.83333V3.33333V4.83333C5.11232 4.83333 4.90036 4.74554 4.74408 4.58926L5.80474 3.5286ZM5.33333 3.33333V1.83333H3.33333V3.33333V4.83333H5.33333V3.33333ZM3.33333 3.33333L3.55324 1.84954C3.58998 1.85499 3.62637 1.86263 3.66221 1.87243L3.26667 3.31933L2.87112 4.76624C2.95081 4.78803 3.03172 4.80502 3.11343 4.81713L3.33333 3.33333ZM3.26667 3.31933L4.3311 4.37621C5.1727 3.52859 6.28239 2.99933 7.47076 2.87879L7.31938 1.38644L7.16799 -0.105897C5.28844 0.0847667 3.53333 0.921847 2.20224 2.26246L3.26667 3.31933ZM7.31938 1.38644L7.47076 2.87879C8.65913 2.75824 9.8525 3.05386 10.8472 3.71521L11.6777 2.46611L12.5082 1.21701C10.935 0.17101 9.04754 -0.296562 7.16799 -0.105897L7.31938 1.38644ZM11.6777 2.46611L10.8472 3.71521C11.8418 4.37655 12.5762 5.36261 12.9248 6.50508L14.3595 6.0673L15.7942 5.62952C15.2428 3.82258 14.0814 2.263 12.5082 1.21701L11.6777 2.46611ZM14.3595 6.0673L12.9248 6.50508C13.2734 7.64754 13.2147 8.87558 12.7587 9.97958L14.1451 10.5522L15.5314 11.1249C16.2527 9.37876 16.3455 7.43647 15.7942 5.62952L14.3595 6.0673ZM14.1451 10.5522L12.7587 9.97958C12.3027 11.0836 11.4776 11.9951 10.4244 12.5585L11.132 13.8812L11.8395 15.2038C13.5053 14.3126 14.8102 12.871 15.5314 11.1249L14.1451 10.5522ZM11.132 13.8812L10.4244 12.5585C9.37118 13.122 8.15505 13.3024 6.9836 13.0691L6.69054 14.5401L6.39749 16.0112C8.25027 16.3803 10.1737 16.0949 11.8395 15.2038L11.132 13.8812ZM6.69054 14.5401L6.9836 13.0691C5.81215 12.8357 4.75801 12.203 4.0011 11.2789L2.8407 12.2295L1.68031 13.18C2.87744 14.6415 4.5447 15.6421 6.39749 16.0112L6.69054 14.5401ZM2.8407 12.2295L4.0011 11.2789C3.2442 10.3549 2.83146 9.19682 2.83333 8.00235L1.33333 8L-0.166665 7.99765C-0.16963 9.88684 0.48317 11.7185 1.68031 13.18L2.8407 12.2295ZM1.33333 8H2.83333C2.83333 7.42536 2.60506 6.87427 2.19873 6.46794L1.13807 7.5286L0.0774112 8.58926C-0.078869 8.43298 -0.166667 8.22101 -0.166667 8H1.33333ZM1.13807 7.5286L2.19873 6.46794C1.7924 6.06161 1.2413 5.83333 0.666667 5.83333V7.33333V8.83333C0.445652 8.83333 0.233691 8.74554 0.0774112 8.58926L1.13807 7.5286ZM0.666667 7.33333V5.83333C0.0920302 5.83333 -0.45907 6.06161 -0.865398 6.46794L0.195262 7.5286L1.25592 8.58926C1.09964 8.74554 0.887681 8.83333 0.666667 8.83333V7.33333ZM0.195262 7.5286L-0.865398 6.46794C-1.27173 6.87426 -1.5 7.42536 -1.5 8H0H1.5C1.5 8.22101 1.4122 8.43298 1.25592 8.58926L0.195262 7.5286ZM0 8H-1.5C-1.5 9.87892 -0.942835 11.7157 0.101039 13.2779L1.34824 12.4446L2.59545 11.6112C1.88122 10.5423 1.5 9.28558 1.5 8H0ZM1.34824 12.4446L0.101039 13.2779C1.14491 14.8402 2.62861 16.0578 4.36451 16.7769L4.93853 15.391L5.51256 14.0052C4.32484 13.5132 3.30968 12.6801 2.59545 11.6112L1.34824 12.4446ZM4.93853 15.391L4.36451 16.7769C6.10041 17.4959 8.01054 17.684 9.85336 17.3175L9.56072 15.8463L9.26809 14.3751C8.00721 14.6259 6.70028 14.4972 5.51256 14.0052L4.93853 15.391ZM9.56072 15.8463L9.85336 17.3175C11.6962 16.9509 13.3889 16.0461 14.7175 14.7175L13.6569 13.6569L12.5962 12.5962C11.6872 13.5052 10.529 14.1243 9.26809 14.3751L9.56072 15.8463ZM13.6569 13.6569L14.7175 14.7175C16.0461 13.3889 16.9509 11.6962 17.3175 9.85336L15.8463 9.56072L14.3751 9.26809C14.1243 10.529 13.5052 11.6872 12.5962 12.5962L13.6569 13.6569ZM15.8463 9.56072L17.3175 9.85336C17.684 8.01054 17.4959 6.10041 16.7769 4.36451L15.391 4.93853L14.0052 5.51256C14.4972 6.70028 14.6259 8.00721 14.3751 9.26809L15.8463 9.56072ZM15.391 4.93853L16.7769 4.36451C16.0578 2.62861 14.8402 1.14491 13.2779 0.101039L12.4446 1.34824L11.6112 2.59545C12.6801 3.30968 13.5132 4.32484 14.0052 5.51256L15.391 4.93853ZM12.4446 1.34824L13.2779 0.101039C11.7157 -0.942835 9.87892 -1.5 8 -1.5V0V1.5C9.28558 1.5 10.5423 1.88122 11.6112 2.59545L12.4446 1.34824Z" fill="#0071C7" mask="url(#path-1-inside-1_1136_3673)"/>
<path d="M8.0013 4.16211C8.04578 4.16211 8.08891 4.17959 8.12044 4.21094C8.15193 4.24242 8.17016 4.28556 8.17025 4.33008V7.60254L10.1195 9.55176L10.1546 9.60645C10.1626 9.62646 10.1665 9.64797 10.1663 9.66992C10.166 9.71405 10.1487 9.75688 10.1175 9.78809C10.0863 9.81921 10.0434 9.83653 9.99935 9.83691C9.95609 9.83717 9.9146 9.82065 9.88314 9.79102L7.88314 7.79102H7.88216C7.8507 7.75948 7.83335 7.71643 7.83333 7.67188V4.33008L7.84603 4.26562C7.8544 4.24551 7.86645 4.22665 7.88216 4.21094C7.91364 4.17945 7.95679 4.1622 8.0013 4.16211Z" stroke="#0071C7"/>
</g>
<defs>
<clipPath id="clip0_1136_3673">
<rect width="16" height="16" fill="white"/>
</clipPath>
</defs>
</svg>
